<?xml version="1.0" encoding="utf-8"?>
<svg viewBox="0 0 500 500" xmlns="http://www.w3.org/2000/svg" xmlns:bx="https://boxy-svg.com">
  <defs>
    <bx:guide x="95.991" y="40.703" angle="0"/>
    <bx:guide x="-17.236" y="1.44" angle="0"/>
    <bx:guide x="24.505" y="48.647" angle="90"/>
    <bx:guide x="15.565" y="37.14" angle="90"/>
  </defs>
  <g transform="matrix(0.740607, 0, 0, 0.740607, -165.624023, -130.161682)" style="">
    <path d="M 451.978 351.432 L 598.773 351.432 L 672.987 223.074 L 526.192 223.074 L 451.978 351.432 Z" style="fill: rgb(71, 71, 208); stroke-width: 0.268244px;" transform="matrix(0.866182, 0.499728, -0.499728, 0.866182, 218.818528, -242.648802)"/>
    <path d="M 528.333 485.146 L 675.128 485.146 L 749.342 356.788 L 602.547 356.788 L 528.333 485.146 Z" style="stroke-width: 0.268244px; fill: rgb(71, 71, 208);" transform="matrix(-0.86573, 0.500511, -0.500511, -0.86573, 1402.597011, 465.665489)"/>
    <path d="M 372.247 356.787 L 519.042 356.787 L 593.246 485.146 L 446.451 485.146 L 372.247 356.787 Z" style="stroke-width: 0.268244px; fill: rgb(71, 71, 208);" transform="matrix(0.86573, 0.500511, -0.500511, 0.86573, 275.516761, -185.096872)"/>
    <rect x="-349.257" y="-118.593" width="146.796" height="128.359" style="fill: rgb(201, 28, 28); stroke-width: 0.268244px;" transform="matrix(0.866182, 0.499728, 1.0005, -0.577271, 1010.067148, 653.34779)"/>
    <path d="M 682.532 744.825 L 829.327 744.825 L 903.531 616.466 L 756.736 616.466 L 682.532 744.825 Z" style="fill: rgb(161, 15, 15); stroke-width: 0.268244px;" transform="matrix(-0.86573, 0.500511, -0.500511, -0.86573, 1820.25339, 872.979683)"/>
    <path d="M 526.466 616.456 L 673.261 616.456 L 747.465 744.814 L 600.67 744.814 L 526.466 616.456 Z" style="fill: rgb(182, 12, 12); stroke-width: 0.268244px;" transform="matrix(0.86573, 0.500511, -0.500511, 0.86573, 426.190729, -227.419544)"/>
    <path d="M 295.872 616.161 L 442.668 616.161 L 516.872 487.802 L 370.076 487.802 L 295.872 616.161 Z" style="fill: rgb(109, 232, 60); stroke-width: 0.268244px;" transform="matrix(0.866182, 0.499728, -0.499728, 0.866182, 330.220465, -129.210637)"/>
    <path d="M 372.217 749.875 L 519.013 749.875 L 593.227 621.517 L 446.431 621.517 L 372.217 749.875 Z" style="fill: rgb(89, 201, 45); stroke-width: 0.268244px;" transform="matrix(-0.86573, 0.500511, -0.500511, -0.86573, 1243.827467, 1037.715931)"/>
    <path d="M 216.132 621.516 L 362.927 621.516 L 437.141 749.875 L 290.346 749.875 L 216.132 621.516 Z" style="fill: rgb(101, 218, 54); stroke-width: 0.268244px;" transform="matrix(0.86573, 0.500511, -0.500511, 0.86573, 387.055707, -71.416936)"/>
  </g>
</svg>