<?xml version="1.0" encoding="utf-8"?>
<svg width="150px" height="58px" viewBox="0 0 150 58" version="1.1" xmlns="http://www.w3.org/2000/svg" xmlns:bx="https://boxy-svg.com">
  <defs>
    <bx:guide x="95.991" y="40.703" angle="0"/>
    <bx:guide x="-17.236" y="1.44" angle="0"/>
    <bx:guide x="24.505" y="48.647" angle="90"/>
    <bx:guide x="15.565" y="37.14" angle="90"/>
  </defs>
  <path d="M -34.439 -11.694 H -19.964 V 0.963 H -34.439 V -11.694 Z" style="fill: rgb(71, 71, 208); stroke-width: 0.268244px;" transform="matrix(0.866182, 0.499728, 1.0005, -0.577271, 103.516935, 18.067237)"/>
  <path d="M 34.439 11.694 H 48.914 V 24.351 H 34.439 V 11.694 Z" style="stroke-width: 0.268244px; fill: rgb(71, 71, 208);" transform="matrix(-0.86573, 0.500511, 0, 1.155094, 118.196834, -20.92055)"/>
  <path d="M 34.439 11.694 H 48.914 V 24.351 H 34.439 V 11.694 Z" style="stroke-width: 0.268244px; fill: rgb(71, 71, 208);" transform="matrix(0.86573, 0.500511, 0, 1.155094, 30.644241, -20.920769)"/>
  <rect x="34.439" y="11.694" width="14.475" height="12.657" style="fill: rgb(201, 28, 28); stroke-width: 0.268244px;" transform="matrix(0.866182, 0.499728, 1.0005, -0.577271, 35.661234, 22.751807)"/>
  <path d="M -34.439 -11.694 H -19.964 V 0.963 H -34.439 V -11.694 Z" style="fill: rgb(161, 15, 15); stroke-width: 0.268244px;" transform="matrix(-0.86573, 0.500511, 0, 1.155094, 73.771557, 66.174864)"/>
  <path d="M 34.439 11.694 H 48.914 V 24.351 H 34.439 V 11.694 Z" style="fill: rgb(182, 12, 12); stroke-width: 0.268244px;" transform="matrix(0.86573, 0.500511, 0, 1.155094, 45.850899, 4.684379)"/>
  <path d="M -34.439 -11.694 H -19.964 V 0.963 H -34.439 V -11.694 Z" style="fill: rgb(109, 232, 60); stroke-width: 0.268244px;" transform="matrix(0.866182, 0.499728, 1.0005, -0.577271, 88.123144, 44.171293)"/>
  <path d="M 34.439 11.694 H 48.914 V 24.351 H 34.439 V 11.694 Z" style="fill: rgb(89, 201, 45); stroke-width: 0.268244px;" transform="matrix(-0.86573, 0.500511, 0, 1.155094, 102.803047, 5.183519)"/>
  <path d="M 34.439 11.694 H 48.914 V 24.351 H 34.439 V 11.694 Z" style="fill: rgb(101, 218, 54); stroke-width: 0.268244px;" transform="matrix(0.86573, 0.500511, 0, 1.155094, 15.250414, 5.183298)"/>
</svg>